<svg id="Layer_1" xmlns="http://www.w3.org/2000/svg" viewBox="0 0 156.364 147.239"><style>.st0{fill:#E4E4E5;} .st1{fill:#3E295E;} .st2{fill:#429946;} .st3{fill:#F3EA2F;} .st4{fill:#FFFFFF;}</style><path class="st0" d="M153.38 20.85c-1.78-3.336-6.39-3.596-9.653-3.22-14.86 1.708-25.45 17.76-25.45 17.76s-17.414 3.413-21.685 3.755c-2.322.184-3.735-.058-4.742-.666 1.334-.864-.74-2.92-1.34-4.042-.414-.766-.88-1.632-1.49-2.597-.45-.706-.986-1.347-1.597-1.905l-.47-.43-.634.074c-.483.055-1.014.117-1.586.185-1.196-.62-2.54-.972-3.935-1.13-.667-7.416-6.324-13.206-13.202-13.206-7.33 0-13.27 6.567-13.27 14.67 0 .532.03 1.055.08 1.57-2.328-.573-4.653-1.144-7.033-1.294-.914-.06-1.835-.055-2.768.035-13.372 1.287-23.48 8.823-30.11 19.174-.825.48-1.59.94-2.272 1.356l-.31.19-.18.318c-1.574 2.798-2.902 5.73-3.996 8.75-.588 1.62-1.623 3.415-1.463 5.197.024.28.07.524.13.734.15.503.404.806.717.95-.422 1.725-.78 3.47-1.064 5.228-1.705 10.63 4.944 19.537 8.542 28.74 2.26 5.784 4.698 13.135 10.622 16.082 4.612 2.295 9.487 4.757 14.44 6.21 6.484 1.9 13.24 3.5 19.963 3.69 1.73.05 3.406 0 5.04-.14 1.735 2.296 4.364 3.856 7.668 4.51 1.15.226 2.33.337 3.527.337 5.18 0 10.602-2.073 14.54-5.71 3.19-2.945 3.95-7.155 4.683-11.227.58-3.236 1.107-6.13 2.718-8.108 1.29.977 2.89 1.565 4.635 1.565 4.245 0 7.688-3.442 7.688-7.69 0-4.246-3.443-7.688-7.688-7.688-2.246 0-4.262.97-5.668 2.506 2.297-5.445 5.654-8.84 10.098-13.278 2.583-2.582 4.162-5.955 6.696-8.568 3.082-3.18 7.24-4.783 11.088-6.8 4.324-2.27 8.112-5.354 12.076-8.172 3.215-2.283 6.54-4.534 9.056-7.62 2.72-3.336 4.457-7.45 5.883-11.475.95-2.68 1.85-5.154 2.12-8 .318-3.4 1.303-7.41-.408-10.623zm-61.742 93.33c-.66 3.664-1.282 7.125-3.61 9.275-4.053 3.74-9.946 5.506-15.013 4.51-1.61-.318-2.958-.884-4.043-1.68 6.407-1.32 11.992-4.4 16.845-9.704 4.483-4.894 6.79-9.9 8.945-15.74.04 1.12.317 2.175.784 3.123-2.557 2.754-3.27 6.67-3.908 10.216z"/><path class="st1" d="M43.597 30.45c-.914-.06-1.837-.056-2.77.035-22.03 2.12-35.226 21.186-38.546 41.897-1.705 10.628 4.946 19.537 8.543 28.74 2.26 5.784 4.698 13.134 10.62 16.08 4.614 2.296 9.487 4.758 14.44 6.21 6.486 1.902 13.242 3.502 19.965 3.692 10.48.296 19.11-2.714 26.192-10.45 5.387-5.882 7.633-11.92 10.246-19.384 2.292-6.552 5.882-10.178 10.802-15.09 2.583-2.582 4.163-5.956 6.697-8.57 3.083-3.18 7.24-4.78 11.087-6.797 4.325-2.27 8.112-5.356 12.077-8.174 3.215-2.285 6.54-4.534 9.055-7.62 2.72-3.338 4.456-7.45 5.883-11.474.95-2.682 1.85-5.156 2.12-8.002.32-3.398 1.303-7.408-.41-10.62-1.777-3.336-6.385-3.596-9.65-3.22-14.86 1.707-25.45 17.76-25.45 17.76s-17.414 3.413-21.684 3.755c-6.22.495-5.915-2.07-8.757-6.555-3.094-4.884-9.865-4.46-14.818-3.36-4.976 1.104-8.2 4.318-13.557 3.516-4.063-.608-7.993-2.11-12.086-2.37z"/><path class="st2" d="M113.45 46.573c1.554-.076 3.81 1.674 5.167 2.337.796.393 1.27.78 1.506 1.17 11.12-10.296 19.663-10.682 23.656-10.047 4.69-12.4 3.694-25.128-11.35-16.696-.117.068-.225.133-.342.2 1.378.942 1.875 3.717 1.095 6.688-.884 3.367-3.076 5.71-4.894 5.233-1.818-.48-2.573-3.596-1.687-6.964.17-.65.392-1.26.647-1.824C116.36 34.68 113.306 44 113.306 44l-.515-5.466s-3.582 2.22-23.563 3.245c-6.21.317-14.037 1.24-19.492 4.433-5.257 3.077-8.958 8.193-14.527 10.85-4.704 2.246-8.667 3.185-13.713 1.55-5.41-1.748-9.965-5.142-15.89-2.01 5.505-6.134 17.878-7.135 25.476-5.902 3.537.575 7.2 1.754 10.486-.743 2.013-1.53 3.06-4.488 2.077-6.892-1.19-2.904-3.523-2.5-6.107-3.133-6.354-1.555-11.848-5.132-18.673-3.79-8.933 1.76-16.95 8.13-22.493 15.133-4.026 5.09-4.907 9.712-6.302 15.745-1.637 7.09-3.14 14.28.095 21.206 6.147 13.148 26.982 20.833 42.86 8.71 0 0-2.9 5.976-12.123 8.538 0 0 25.102-1.365 37.57-8.88 12.463-7.514 21.513-19.47 21.513-19.47s-12.636 4.27-22.71 11.272c0 0 14.855-11.44 22.71-15.027 7.465-3.408 35.885-18.997 42.795-31.235-2.04-.433-6.462-.636-12.888 3.05-.486.278-.944.554-1.387.83.273 1.312.47 3.917.455 4.194-.084 1.45-.035 3.56-.936 4.798-2.36 3.25-2.974-3.265-5.457-4.706-4.157 3.315-8.14 6.627-18.485 10.48-1.208.45-2.553.943-3.98 1.465-.124 1.316-.45 3.17-.518 3.388-.414 1.312-.858 3.254-1.974 4.18-2.792 2.328-2.034-3.193-3.674-5.322-5.336 1.935-11.327 4.11-17.143 6.28-.117 1.32-.46 3.263-.527 3.486-.413 1.31-.857 3.253-1.97 4.18-2.798 2.33-2.033-3.212-3.687-5.335-10.46 4.005-19.2 7.68-20.618 9.414-2.986 3.648.83 10.284-3.32 10.784-4.147.497-2.818-5.31-2.818-5.31.996-5.908 8.202-10.44 17.912-14.417.13-2.677-2.8-6.78.63-6.115 1.527.297 3.295 2.54 4.45 3.51.193.163.353.315.498.465 5.55-2.01 11.606-3.91 17.63-5.817.798-2.592-2.99-7.505.738-6.78 1.53.298 3.297 2.538 4.454 3.51.557.468.905.883 1.087 1.258l.2-.067-.112-.036c.258-.047.505-.12.76-.176 8.188-2.68 15.887-5.478 21.65-8.712 2.727-2.533-4.75-7.818-.298-8.043z"/><path class="st3" d="M142.78 42.137c-1.3-.275-3.577-.454-6.72.407-2.47.98-4.834 2.066-7.148 3.227-.13.083-.278.164-.408.246.273 1.313.47 3.918.455 4.195-.085 1.453-.036 3.562-.937 4.8-2.36 3.25-2.974-3.265-5.457-4.706-4.157 3.315-8.14 6.627-18.485 10.48-1.207.45-2.552.943-3.98 1.465-.123 1.315-.45 3.17-.517 3.387-.414 1.312-.858 3.254-1.974 4.18-2.793 2.328-2.035-3.193-3.675-5.322-5.336 1.935-11.327 4.11-17.143 6.28-.118 1.32-.46 3.263-.528 3.486-.413 1.31-.857 3.255-1.97 4.182-2.798 2.33-2.033-3.212-3.687-5.335-10.46 4.005-19.2 7.68-20.618 9.414-2.987 3.65.828 10.286-3.32 10.786-2.684.32-3.072-1.993-3.012-3.67-4.12 2.917-14.902 4.218-11.703 13.158 6.933.805 14.433-.792 21.068-5.858 0 0-2.902 5.977-12.124 8.54 0 0 25.1-1.366 37.568-8.882 12.464-7.513 21.514-19.468 21.514-19.468s-12.636 4.268-22.71 11.27c0 0 14.855-11.44 22.71-15.026 7.468-3.406 35.887-18.996 42.798-31.233z"/><path class="st4" d="M43.474 57.273c-1.78-.14-3.496-.68-4.852-1.782-.594-.48-1.467-1.383-1.112-2.263.45-1.12 2.246-.682 3.203-.617 1.912.13 2.305 1.914 3.802 3.026-.017-.012.805-2.376 1.022-2.557.902-.753 3.32-.16 4.368-.034 3.61.446 1.53 2.623-.52 3.372-1.77.65-3.882 1.01-5.91.855z"/><path class="st2" d="M74.776 41.538c-1.682.648-6.47 4.267-6.398.632.042-2.065 1.17-4.605 2.234-6.35 1.667-2.727 5.537-3.59 8.456-2.462 2.05.795 5.236 3.698 3.108 5.808-1.87 1.855-5.033 1.46-7.4 2.372z"/><path class="st4" d="M72.293 106.593c-1.068.368-2.153.7-3.25 1.002-2.888.795-9.51.57-10.282 4.357-3.166-1.96-4.493-1.984-8.2-1.977-3.377.007-6.756-.198-10.11-.6-5.615-.678-11.08-2.04-16.543-3.527-2.418-.658-4.954-2.06-7.386-2.395.323 6.5 5.276 11.664 11.293 13.562 6.527 2.058 13.232 3.423 19.932 4.782 5.474 1.11 11.284 2.22 16.768.582 4.665-1.395 8.954-4.383 12.745-7.347 8.766-6.858 10.583-18.13 10.583-18.13-.368 2.292-6.962 5.71-8.817 6.73-2.165 1.193-4.412 2.16-6.73 2.96z"/><path class="st1" d="M2.63 66.204c-.063-.21-.107-.455-.132-.735-.16-1.782.876-3.58 1.462-5.2 1.095-3.017 2.42-5.95 3.996-8.748l.178-.318.312-.19c6.144-3.754 18.443-10.57 31.792-14.05 15.2-3.958 34.647-6.43 42.303-7.312l.635-.073.47.428c.612.558 1.15 1.198 1.597 1.905.61.964 1.076 1.832 1.488 2.598.625 1.16 2.84 3.33 1.197 4.132-.913.446-2.81.176-3.887.284-2.755.275-5.506.597-8.252.958-7.78 1.023-15.528 2.35-23.173 4.12-6.726 1.56-13.404 3.45-19.823 6.004-2.653 1.056-5.278 2.186-7.857 3.408-5.73 2.715-11.405 5.862-16.276 9.96-1.132.952-2.098 2.04-3.177 3.035-1.2 1.106-2.43 1.224-2.853-.206z"/><path class="st4" d="M6.48 61.54c1.042-2.925 2.292-5.712 3.74-8.328 6.11-3.71 17.945-10.208 30.724-13.536 14.604-3.805 33.235-6.23 41.247-7.164.252.278.48.58.685.9.558.88.998 1.7 1.388 2.424.042.082.086.16.128.24-9.814.958-34.09 3.947-52.635 11.33C18.24 52.787 10.585 58.01 6.48 61.54z"/><ellipse class="st1" cx="63.818" cy="30.175" rx="13.269" ry="14.672"/><ellipse class="st4" cx="64.166" cy="30.174" rx="10.41" ry="11.893"/><ellipse class="st1" cx="64.639" cy="30.174" rx="3.221" ry="3.68"/><path class="st1" d="M64.903 22.072c-1.268 0-2.456.384-3.485 1.05.477-.117.975-.18 1.482-.18 3.917 0 7.092 3.627 7.092 8.103 0 3.027-1.455 5.66-3.607 7.052 3.205-.78 5.61-4.03 5.61-7.923 0-4.475-3.177-8.102-7.092-8.102zM94.158 102.15c-4.585 2.574-5.495 7.637-6.297 12.102-.66 3.665-1.282 7.126-3.61 9.276-4.054 3.74-9.947 5.507-15.015 4.51-2.654-.525-4.614-1.713-5.82-3.534-1.05-1.58-1.517-3.62-1.394-5.988l2.62-.272v-.85c5.11-.946 9.185-2.045 9.936-2.793 7.105-7.087 12.5-18.614 12.5-18.614L79.03 99.83s-1.407 6.615-7.446 11.535c-.507.413-3.275 1.186-6.946 1.92v-1.313l-10.884 1.416.242 1.438c-5.27.453-10.18.32-12.2-1.165-5.06-3.712-10.425-9.176-10.425-9.176l-7.146-1.032s11.688 11.182 16.01 14.62c1.833 1.455 7.895 1.428 14.437.755l.074.446 3.77-.393c-.06 2.902.597 5.476 1.98 7.56 1.72 2.588 4.505 4.33 8.06 5.03 1.148.228 2.33.34 3.526.34 5.18 0 10.6-2.076 14.54-5.71 3.19-2.946 3.95-7.158 4.68-11.23.764-4.24 1.422-7.9 4.57-9.67l-1.716-3.05z"/><circle class="st1" cx="98.658" cy="100.64" r="7.689"/><circle class="st4" cx="98.658" cy="100.64" r="4.857"/><path class="st1" d="M98.658 97.482c-.974 0-1.834.45-2.413 1.143.455-.254.97-.41 1.53-.41 1.743 0 3.156 1.412 3.156 3.157 0 .77-.286 1.466-.742 2.015.967-.54 1.628-1.56 1.628-2.747 0-1.745-1.414-3.158-3.158-3.158z"/></svg>