<svg id="Layer_1" xmlns="http://www.w3.org/2000/svg" viewBox="0 0 156.364 147.239"><style>.st0{fill:#E4E4E5;} .st1{fill:#3E295E;} .st2{fill:#429946;} .st3{fill:#F3EA2F;} .st4{fill:#FFFFFF;}</style><path class="st0" d="M155.46 39.28c-1.64-3.08-5.892-3.318-8.902-2.973-13.708 1.575-23.473 16.382-23.473 16.382s-7.804 1.528-13.867 2.562c.076-.285.1-.61.055-.983-.617-5.09-6.46-2.214-9.81-1.46-.864.196-1.73.397-2.596.595-.122-.214-.248-.443-.376-.68 8.015-2.238 14.1-4.665 15.82-7.127 2.056-2.944-9.357-2.593-18.53-1.876l-.385-.952c4.222-5.555 9.39-15.024 9.88-28.507C103.69 2.89 92.82-.93 83.635.185 60.912 2.94 49.544 25.192 32.39 37.36 22.88 44.11-3.304 56.65 5.14 72.49c2.36 4.43 8.53 5.313 13.103 4.926l2.292 4.606h.002c-.38 1.558-.704 3.133-.96 4.72-1.57 9.804 4.562 18.022 7.88 26.51.307.787.62 1.606.944 2.438l5.1 19.87 20.38 1.677 19.532 9.934 13.703-10.8 14.427-3.456 1.506-24.413c2.122-5.304 5.285-8.497 9.514-12.72 2.382-2.38 3.838-5.494 6.176-7.905 2.843-2.934 6.678-4.41 10.227-6.27 3.99-2.095 7.483-4.94 11.14-7.54 2.966-2.106 6.032-4.18 8.353-7.028 2.51-3.078 4.11-6.87 5.425-10.583.88-2.474 1.71-4.756 1.958-7.38.293-3.134 1.202-6.832-.378-9.795z"/><path class="st1" d="M54.2 48.132c-.845-.053-1.696-.05-2.555.034-20.32 1.956-32.49 19.542-35.556 38.644-1.573 9.804 4.56 18.022 7.877 26.51 2.086 5.335 4.333 12.115 9.797 14.833 4.254 2.117 8.75 4.388 13.32 5.727 5.98 1.753 12.213 3.23 18.414 3.404 9.665.273 17.626-2.503 24.158-9.636 4.97-5.428 7.042-10.997 9.453-17.88 2.112-6.044 5.424-9.388 9.962-13.92 2.383-2.38 3.84-5.494 6.178-7.904 2.843-2.934 6.677-4.41 10.227-6.27 3.988-2.095 7.482-4.94 11.14-7.54 2.965-2.107 6.033-4.182 8.353-7.028 2.51-3.08 4.11-6.87 5.427-10.583.878-2.474 1.708-4.756 1.956-7.38.294-3.135 1.203-6.834-.376-9.796-1.642-3.078-5.893-3.316-8.904-2.97-13.71 1.573-23.473 16.38-23.473 16.38s-16.065 3.148-20.003 3.462c-5.737.457-5.457-1.907-8.076-6.044-2.853-4.505-9.1-4.113-13.667-3.1-4.59 1.02-7.562 3.982-12.505 3.243-3.75-.56-7.373-1.947-11.15-2.188z"/><path class="st2" d="M118.63 63.005c1.435-.07 3.516 1.545 4.765 2.156.736.362 1.172.72 1.39 1.08 10.257-9.497 18.136-9.852 21.82-9.268 4.326-11.436 3.408-23.178-10.468-15.4-.11.062-.21.124-.315.184 1.27.87 1.73 3.428 1.01 6.17-.817 3.105-2.84 5.268-4.516 4.827-1.675-.442-2.372-3.318-1.556-6.424.157-.6.36-1.164.597-1.683-10.042 7.388-12.86 15.984-12.86 15.984l-.475-5.04s-3.306 2.047-21.735 2.992c-5.728.294-12.948 1.145-17.98 4.09-4.848 2.838-8.26 7.557-13.4 10.01-3.686 1.758-10.72 4.337-12.892-.874-.863-2.07.122-4.135 2.13-5.05 1.98-.9 4.857-.287 6.955.053 3.263.53 6.643 1.618 9.67-.687 1.857-1.41 2.824-4.14 1.917-6.357-1.096-2.678-3.248-2.307-5.63-2.89-5.862-1.434-10.93-4.733-17.224-3.493-8.24 1.623-15.637 7.497-20.747 13.957-3.715 4.696-4.527 8.958-5.813 14.522-1.51 6.54-2.898 13.172.088 19.56 5.67 12.13 24.888 19.216 39.535 8.034 0 0-2.676 5.51-11.182 7.875 0 0 23.154-1.258 34.652-8.19 11.498-6.93 19.847-17.957 19.847-17.957S94.555 95.12 85.264 101.58c0 0 13.7-10.553 20.948-13.86 6.883-3.144 33.098-17.522 39.474-28.81-1.885-.4-5.963-.587-11.89 2.812-.447.257-.87.51-1.28.764.253 1.212.435 3.615.422 3.872-.078 1.34-.032 3.283-.862 4.427-2.175 2.998-2.743-3.013-5.035-4.342-3.833 3.058-7.504 6.112-17.05 9.666-1.113.416-2.354.87-3.67 1.352-.113 1.214-.415 2.925-.478 3.125-.38 1.21-.79 3-1.818 3.856-2.576 2.146-1.878-2.945-3.39-4.91-4.922 1.785-10.45 3.79-15.814 5.792-.107 1.218-.422 3.01-.487 3.216-.38 1.21-.79 3.002-1.818 3.857-2.58 2.15-1.875-2.96-3.4-4.92C69.47 91.17 61.406 94.56 60.1 96.16c-2.755 3.366.765 9.488-3.062 9.948-3.826.458-2.6-4.898-2.6-4.898.918-5.448 7.565-9.628 16.52-13.297.12-2.47-2.582-6.254.58-5.64 1.41.274 3.042 2.344 4.107 3.238.178.15.324.29.458.43 5.12-1.854 10.705-3.607 16.26-5.367.74-2.39-2.753-6.922.684-6.252 1.41.275 3.04 2.34 4.108 3.236.513.433.834.816 1.002 1.16l.186-.06-.103-.035c.238-.042.465-.11.7-.16 7.552-2.475 14.653-5.055 19.97-8.038 2.514-2.335-4.382-7.21-.277-7.417z"/><path class="st3" d="M145.686 58.913c-1.202-.254-3.3-.418-6.2.375-2.28.906-4.458 1.907-6.593 2.977-.122.075-.255.15-.377.225.252 1.212.434 3.615.42 3.872-.077 1.34-.03 3.283-.86 4.427-2.176 2.997-2.744-3.014-5.036-4.343-3.834 3.058-7.505 6.112-17.05 9.666-1.114.417-2.355.87-3.67 1.353-.114 1.214-.416 2.925-.48 3.125-.38 1.21-.788 3.002-1.817 3.857-2.576 2.146-1.878-2.945-3.39-4.91-4.922 1.785-10.45 3.79-15.814 5.792-.108 1.217-.423 3.01-.488 3.215-.38 1.208-.79 3-1.818 3.856-2.58 2.15-1.875-2.96-3.4-4.92-9.647 3.695-17.71 7.084-19.017 8.684-2.755 3.366.765 9.488-3.062 9.948-2.476.296-2.834-1.838-2.78-3.386-3.798 2.69-13.744 3.89-10.793 12.137 6.395.742 13.312-.73 19.433-5.403 0 0-2.676 5.51-11.182 7.875 0 0 23.154-1.26 34.652-8.19 11.498-6.93 19.847-17.958 19.847-17.958s-11.657 3.938-20.948 10.397c0 0 13.7-10.553 20.948-13.86 6.883-3.144 33.098-17.523 39.474-28.81z"/><path class="st4" d="M54.085 72.875c-1.642-.13-3.223-.628-4.476-1.645-.55-.444-1.353-1.275-1.027-2.087.416-1.033 2.073-.628 2.956-.568 1.762.12 2.125 1.765 3.505 2.792-.016-.012.742-2.19.942-2.36.83-.692 3.064-.147 4.03-.03 3.327.412 1.41 2.42-.48 3.11-1.63.598-3.58.932-5.452.788z"/><path class="st2" d="M82.958 58.36c-1.552.6-5.97 3.936-5.902.582.04-1.904 1.08-4.246 2.06-5.856 1.537-2.515 5.108-3.312 7.8-2.27 1.89.733 4.83 3.41 2.87 5.357-1.727 1.71-4.645 1.348-6.828 2.188z"/><path class="st4" d="M29.224 115.47c.297 5.997 4.865 10.76 10.416 12.51 10.26 3.232 28.81 6.323 28.81 6.323s-1.406-6.887-5.06-10.26c-2.932-2.705-8.387-2.664-12.093-3.112-5.18-.622-10.222-1.88-15.26-3.25-2.232-.607-4.57-1.902-6.813-2.21zM71.68 133.61s-.28-9.99 4.076-12.097c4.357-2.107 14.9-7.588 19.255-12.086 0 0-1.677 10.4-9.763 16.725-8.085 6.324-13.567 7.458-13.567 7.458z"/><path class="st1" d="M90.294 43.79l-.384-.953c4.222-5.554 9.39-15.024 9.88-28.507C100.205 2.958 89.336-.86 80.15.253 57.428 3.008 46.06 25.26 28.906 37.43 19.392 44.177-6.79 56.716 1.652 72.56c2.36 4.43 8.53 5.31 13.103 4.924l2.29 4.606s10.693-10.35 22.85-19.18c16.9-2.4 63.634-9.662 68.928-17.245 2.056-2.943-9.355-2.592-18.53-1.876z"/><path class="st4" d="M14.9 70.525c3.088-4.065 12.756-15.688 28.277-24.39 9.224-5.17 18.403-7.79 27.282-7.79 7.868 0 13.337 2.123 15.397 3.078l.026.064C77.605 42.772 58.87 46.555 44.26 55.99 33.63 62.855 23.125 72.075 18.004 76.77L14.9 70.524zM85.235 16.366s-1.985 2.433-5.683 2.627c-3.697.195-4.085-2.627-4.085-2.627s-2.53 9.534-.39 12.94c2.14 3.404 5.348 6.13 5.348 6.13s6.715-1.17 9.246-5.936c2.53-4.767 3.893-9.73 3.893-9.73s-3.31 2.24-4.962 0c-1.653-2.237-2.475-4.183-2.475-4.183l-.89.78z"/><path class="st1" d="M24.596 58.704l3.664 9.743 7.17-4.872-4.168-10.288zM36.262 50.162l3.664 9.744 7.168-4.872-4.166-10.288zM48.508 42.27l3.664 11.017 7.624-2.917-4.244-11.31zM63.49 37.658l2.135 11.413 7.95-1.855-2.672-11.78zM13.764 68.84l3.663 9.745 7.17-4.872-4.168-10.288z"/><path class="st1" d="M21.597 74.446l24.986-9.482s-.112-1.993 2.822-2.56c2.934-.565 20.77-4.365 22.135-3.076 1.365 1.29 7.33-.266 7.33-.266 2.045-.533 4.453-.796 6.41-1.493 1.85-.66.597-1.183 1.647-2.553.514-.67 1.995-.56 2.74-.717 2.116-.45 4.216-.948 6.312-1.42 3.348-.757 9.19-3.633 9.807 1.456.457 3.772-5.795 2.7-8.205 2.905-2.902.25-5.654.316-8.548.684-4.187.532-8.085 3.502-12.176 4.635-.12.032-2.62.685-2.62.823 0 .122-.143 14.93-11.838 16.352-5.15.627-11.75.3-14.676-4.73-.444-.764-.627-1.58-.977-2.374-.688-1.56-2.015-2.04-3.81-2.233-3.99-.43-7.75 1.844-11.337 3.233-3.144 1.22-6.288 2.44-9.433 3.658l-.57-2.842z"/><path class="st4" d="M50.828 66.802c-.365.587-.06 1.237.115 2.233.247 1.41.284 3.6 1.785 4.35 0 0-1.15-4.282 0-5.64 1.15-1.358 5.24-1.67 5.24-1.67l.61-1.567c-2.265.46-4.89.437-6.948 1.607-.407.23-.658.454-.802.687z"/><path class="st1" d="M94.437 116.807c-3.886 8.52-19.35 16.383-24.05 18.618l-.016-.278s-30.106-6.566-38.113-16.015c-8.007-9.448-8.968-9.706-8.968-9.706l6.723 26.2 20.38 1.676 19.533 9.936 13.703-10.8 14.425-3.457 1.64-26.598c0 .002-.658.342-5.258 10.425z"/></svg>